<?xml version="1.0" encoding="utf-8"?>
<?xml-stylesheet type="text/xsl" href="rss1.xsl"?>
<rss version="2.0" xmlns:atom="http://www.w3.org/2005/Atom" xmlns:content="http://purl.org/rss/1.0/modules/content/" xmlns:dc="http://purl.org/dc/elements/1.1/" xmlns:media="http://search.yahoo.com/mrss/">
<channel>
 <title>Getty</title>
 <link>http://www.gettyimg.com/</link>
 <atom:link href="http://www.gettyimg.com/" rel="self" type="application/rss+xml" />

 
                <item>
                <title><![CDATA[【Music Videos】NSYNC - Bye Bye Bye (Audio Dual 5.1 + 2.0) (Clean)]]></title>
                <link><![CDATA[https://sharemania.us/threads/nsync-bye-bye-bye-audio-dual-5-1-2-0-clean.236165/]]></link>
                <description><![CDATA[<article>
<blockquote class="messageText SelectQuoteContainer ugc baseHtml">
<img src="https://i.ibb.co/tB5mJjv/12-N-Sync-Bye-Bye-Bye-5-1-2-0-VOB-thumbs-2024-01-21-01-04-28.jpg" class="bbCodeImage LbImage" alt="[​IMG]" data-url="https://i.ibb.co/tB5mJjv/12-N-Sync-Bye-Bye-Bye-5-1-2-0-VOB-thumbs-2024-01-21-01-04-28.jpg" style=""> <br>
<br>
<div class="ToggleTriggerAnchor bbCodeSpoilerContainer">
<button type="button" class="button bbCodeSpoilerButton ToggleTrigger Tooltip JsOnly" data-target="> .SpoilerTarget"><span>Spoiler: <span class="SpoilerTitle">MediaInfo</span></span></button>
<div class="SpoilerTarget bbCodeSpoilerText">'N Sync-Bye Bye Bye (5.1 + 2.0).VOB<br>
Format : MPEG-PS<br>
File size : 214 MiB<br>
Duration : 4 min 2 s<br>
Overall bit rate mode : Variable<br>
Overall bit rate : 7 394 kb/s<br>
Frame rate : 29.970 FPS<br>
<br>
Video<br>
ID : 224 (0xE0)<br>
Format : MPEG Video<br>
Format version : Version 2<br>
Format profile : Main@Main<br>
Format settings : BVOP<br>
Format settings, BVOP : Yes<br>
Format settings, Matrix : Default<br>
Format settings, GOP : M=3, N=13<br>
Format settings, picture st : Frame<br>
Duration : 4 min 2 s<br>
Bit rate mode : Variable<br>
Bit rate : 6 671 kb/s<br>
Maximum bit rate : 9 000 kb/s<br>
Width : 720 pixels<br>
Height : 480 pixels<br>
Display aspect ratio : 4:3<br>
Frame rate : 29.970 (30000/1001) FPS<br>
Standard : NTSC<br>
Color space : YUV<br>
Chroma subsampling : 4:2:0<br>
Bit depth : 8 bits<br>
Scan type : Interlaced<br>
Scan order : Top Field First<br>
Compression mode : Lossy<br>
Bits/(Pixel*Frame) : 0.644<br>
Time code of first frame : 01:00:37:10<br>
Time code source : Group of pictures header<br>
GOP, Open/Closed : Open<br>
Stream size : 193 MiB (90%)<br>
Color primaries : BT.601 NTSC<br>
Transfer characteristics : BT.601<br>
Matrix coefficients : BT.601<br>
<br>
Audio #1<br>
ID : 189 (0xBD)-128 (0x80)<br>
Format : AC-3<br>
Format/Info : Audio Coding 3<br>
Commercial name : Dolby Digital<br>
Muxing mode : DVD-Video<br>
Duration : 4 min 2 s<br>
Bit rate mode : Constant<br>
Bit rate : 192 kb/s<br>
Channel(s) : 2 channels<br>
Channel layout : L R<br>
Sampling rate : 48.0 kHz<br>
Frame rate : 31.250 FPS (1536 SPF)<br>
Compression mode : Lossy<br>
Delay relative to video : 13 ms<br>
Stream size : 5.55 MiB (3%)<br>
Service kind : Complete Main<br>
<br>
Audio #2<br>
ID : 189 (0xBD)-129 (0x81)<br>
Format : AC-3<br>
Format/Info : Audio Coding 3<br>
Commercial name : Dolby Digital<br>
Muxing mode : DVD-Video<br>
Duration : 4 min 2 s<br>
Bit rate mode : Constant<br>
Bit rate : 384 kb/s<br>
Channel(s) : 6 channels<br>
Channel layout : L R C LFE Ls Rs<br>
Sampling rate : 48.0 kHz<br>
Frame rate : 31.250 FPS (1536 SPF)<br>
Compression mode : Lossy<br>
Delay relative to video : 13 ms<br>
Stream size : 11.1 MiB (5%)<br>
Service kind : Complete Main<br>
<br>
Text<br>
ID : 189 (0xBD)-33 (0x21)<br>
Format : RLE<br>
Format/Info : Run-length encoding<br>
Muxing mode : DVD-Video<br>
Delay relative to video : 2 s 402 ms</div>
</div><br>
<div class="bbCodeBlock bbCodeVfcHH HiddenContent">
<div class="attribution type">Hidden Content:</div>
<blockquote>You must reply before you can see the hidden data contained here.</blockquote>
</div>
<div class="messageTextEndMarker">&nbsp;</div>
</blockquote>
</article>]]></description>
                <author><![CDATA[DJ-RoGeRs-BS]]></author>
                </item>

                
                <item>
                <title><![CDATA[【Documentaries】Christina Aguilera - Dirrty (MTV: Making The Video) 1080p AI Upscaled]]></title>
                <link><![CDATA[https://sharemania.us/threads/christina-aguilera-dirrty-mtv-making-the-video-1080p-ai-upscaled.236166/]]></link>
                <description><![CDATA[<article>
<blockquote class="messageText SelectQuoteContainer ugc baseHtml">
<img src="https://i.ibb.co/gPQz504/Christina-Aguilera-MTV-Making-The-Video-Dirrty-2002-mp4-thumbs.jpg" class="bbCodeImage LbImage" alt="[​IMG]" data-url="https://i.ibb.co/gPQz504/Christina-Aguilera-MTV-Making-The-Video-Dirrty-2002-mp4-thumbs.jpg" style=""> <br>
<br>
AI upscaled to 1080p<br>
Source: Christina Aguilera - Stripped Ultra Limited Edition DVD<br>
<br>
<div class="bbCodeBlock bbCodeVfcHH HiddenContent">
<div class="attribution type">Hidden Content:</div>
<blockquote>You must reply before you can see the hidden data contained here.</blockquote>
</div><span data-s9e-mediaembed="youtube" style="display:inline-block;width:100%;max-width:640px"><span style="display:block;overflow:hidden;position:relative;padding-bottom:56.25%"><iframe allowfullscreen="" loading="lazy" scrolling="no" style="background:url(https://i.ytimg.com/vi/W8DGMMuzypE/hqdefault.jpg) 50% 50% / cover;border:0;height:100%;left:0;position:absolute;width:100%" src="https://www.youtube.com/embed/W8DGMMuzypE"></iframe></span></span>
<div class="messageTextEndMarker">&nbsp;</div>
</blockquote>
</article>]]></description>
                <author><![CDATA[anqhzmdn]]></author>
                </item>

                
                <item>
                <title><![CDATA[【Music Videos】NSYNC - It's Gonna Be Me (Audio Dual 5.1 + 2.0) (Clean)]]></title>
                <link><![CDATA[https://sharemania.us/threads/nsync-its-gonna-be-me-audio-dual-5-1-2-0-clean.236167/]]></link>
                <description><![CDATA[<article>
<blockquote class="messageText SelectQuoteContainer ugc baseHtml">
shdhdhdh
<div class="messageTextEndMarker">&nbsp;</div>
</blockquote>
</article>]]></description>
                <author><![CDATA[DJ-RoGeRs-BS]]></author>
                </item>

                </channel></rss>